<svg xmlns="http://www.w3.org/2000/svg" viewBox="0 0 280 180" role="img" aria-label="Green Tech Alliance organization logo">
  <title>Green Tech Alliance</title>
  <rect width="280" height="180" fill="#f0fff4" rx="12"/>
  <!-- Leaf outline -->
  <path d="M140 40 C140 40 100 60 100 105 C100 130 120 145 140 145 C160 145 180 130 180 105 C180 60 140 40 140 40Z" fill="#276749" opacity="0.15"/>
  <path d="M140 40 C140 40 100 60 100 105 C100 130 120 145 140 145 C160 145 180 130 180 105 C180 60 140 40 140 40Z" fill="none" stroke="#276749" stroke-width="3"/>
  <!-- Circuit lines inside leaf -->
  <line x1="140" y1="60"  x2="140" y2="120" stroke="#38a169" stroke-width="2"/>
  <line x1="130" y1="80"  x2="155" y2="80"  stroke="#38a169" stroke-width="1.5"/>
  <line x1="122" y1="100" x2="158" y2="100" stroke="#38a169" stroke-width="1.5"/>
  <circle cx="155" cy="80"  r="4" fill="#38a169"/>
  <circle cx="122" cy="100" r="4" fill="#38a169"/>
  <circle cx="158" cy="100" r="4" fill="#38a169"/>
  <!-- Org name -->
  <text x="140" y="168" font-family="sans-serif" font-size="11" fill="#276749" text-anchor="middle" letter-spacing="1" font-weight="600">GREEN TECH ALLIANCE</text>
</svg>
